<svg id="Layer_1" data-name="Layer 1" xmlns="http://www.w3.org/2000/svg" viewBox="0 0 500 433.01"><defs><style>.cls-1{fill:#005ea0;}.cls-1,.cls-2,.cls-3,.cls-4,.cls-5,.cls-6,.cls-7,.cls-8{fill-rule:evenodd;}.cls-2{fill:#00a5df;}.cls-3{fill:#57b847;}.cls-4{fill:#add036;}.cls-5{fill:#ffce1c;}.cls-6{fill:#f16a22;}.cls-7{fill:#ee4423;}.cls-8{fill:#ea1d25;}</style></defs><title>SingularIcon</title><polygon class="cls-1" points="210.21 433.01 210.21 353.44 137.83 353.44 0 433.01 210.21 433.01"/><polygon class="cls-2" points="0 433.01 137.83 353.44 125 216.51 0 433.01"/><polygon class="cls-3" points="125 216.51 137.83 353.44 250 159.16 125 216.51"/><polygon class="cls-4" points="125 216.51 250 159.16 250 0 125 216.51"/><polygon class="cls-5" points="250 0 250 159.16 375 216.51 250 0"/><polygon class="cls-6" points="375 216.51 250 159.16 362.17 353.44 375 216.51"/><polygon class="cls-7" points="375 216.51 362.17 353.44 500 433.01 375 216.51"/><polygon class="cls-8" points="362.17 353.44 289.79 353.44 289.79 433.01 500 433.01 362.17 353.44"/></svg>